<?xml version="1.0" encoding="utf-8"?>
<!DOCTYPE svg PUBLIC "-//W3C//DTD SVG 1.1//EN" "http://www.w3.org/Graphics/SVG/1.1/DTD/svg11.dtd">
<svg version="1.1" id="Capa_1" xmlns="http://www.w3.org/2000/svg" xmlns:xlink="http://www.w3.org/1999/xlink" x="0px" y="0px"
width="1024px" height="1024px" viewBox="0 0 1024 1024" enable-background="new 0 0 1080 2412" xml:space="preserve">
<defs></defs><path layer="0" fill="#000000" fill-opacity="1.0" stroke="#FF0000" stroke-width="2.0" stroke-opacity="1.0" stroke-miterlimit="10" d="M364.79,259.56C364.79,259.56,359.24,254.0,357.7,252.51C347.79,242.89,347.22,242.23,358.72,232.07C358.72,232.07,361.28,229.8,361.28,229.8C368.67,223.04,380.02,210.77,380.02,210.77C381.77,208.98,384.71,206.02,384.71,206.02C384.71,206.02,385.73,205.0,385.73,205.0C385.73,205.0,392.8,211.89,392.8,211.89C392.8,211.89,413.54,232.14,421.65,240.07C421.65,240.07,431.49,249.63,450.18,267.96C493.02,309.97,490.94,308.52,506.62,324.65C512.15,330.35,515.85,334.14,515.85,334.14C516.92,335.2,520.55,338.89,520.55,338.89C520.55,338.89,521.86,340.18,521.86,340.18C521.86,340.18,528.78,333.28,528.78,333.28C528.78,333.28,549.08,312.96,557.03,305.0C557.03,305.0,566.86,295.16,585.63,276.36C613.12,248.83,646.74,215.2,646.74,215.2C646.74,215.2,648.92,213.01,648.92,213.01C648.92,213.01,651.27,210.66,651.27,210.66C651.27,210.66,658.28,217.72,658.28,217.72C662.27,222.21,681.22,240.83,686.65,246.02C686.65,246.02,687.23,246.6,687.23,246.6C687.23,246.6,689.57,248.95,689.57,248.95C689.57,248.95,682.69,255.89,682.69,255.89C682.69,255.89,662.38,276.22,654.44,284.17C654.44,284.17,644.6,294.01,625.82,312.8C598.32,340.32,564.66,373.9,564.66,373.9C564.66,373.9,562.44,376.09,562.44,376.09C562.44,376.09,560.07,378.43,560.07,378.43C560.07,378.43,567.08,385.46,567.08,385.46C567.08,385.46,587.78,405.5,595.83,413.39C611.94,429.15,614.48,431.92,638.06,456.13C643.61,461.82,647.31,465.61,647.31,465.61C648.38,466.67,652.01,470.35,652.01,470.35C652.01,470.35,653.51,471.85,653.51,471.85C653.51,471.85,660.73,464.77,660.73,464.77C660.73,464.77,670.28,454.91,688.87,436.44C714.4,411.09,740.1,385.2,745.39,379.89C747.52,377.76,750.09,375.14,750.09,375.14C750.09,375.14,751.38,373.84,751.38,373.84C751.38,373.84,758.28,380.91,758.28,380.91C764.16,387.76,781.15,404.15,786.68,409.26C786.68,409.26,787.23,409.79,787.23,409.79C787.23,409.79,789.63,412.1,789.63,412.1C789.63,412.1,782.54,419.32,782.54,419.32C782.54,419.32,772.69,428.9,754.22,447.52C724.68,477.31,713.64,488.18,697.78,504.1C694.24,507.65,693.04,508.81,693.04,508.81C693.04,508.81,691.77,510.08,691.77,510.08C691.77,510.08,698.73,517.0,698.73,517.0C698.73,517.0,720.15,538.06,783.66,601.97C787.1,605.42,788.2,606.62,788.2,606.62C788.2,606.62,788.37,606.81,788.37,606.81C788.37,606.81,781.18,613.73,781.18,613.73C774.26,619.5,758.18,636.73,753.02,642.18C753.02,642.18,752.48,642.72,752.48,642.72C752.48,642.72,750.11,645.06,750.11,645.06C750.11,645.06,743.24,638.11,743.24,638.11C743.24,638.11,733.57,628.32,715.0,609.74C710.4,605.13,653.56,548.32,653.56,548.32C653.56,548.32,652.24,547.05,652.24,547.05C652.24,547.05,645.24,554.1,645.24,554.1C635.36,565.39,581.33,618.41,574.6,624.94C568.85,630.51,565.01,634.23,565.01,634.23C563.96,635.31,560.3,638.97,560.3,638.97C560.3,638.97,558.81,640.48,558.81,640.48C558.81,640.48,565.93,647.49,565.93,647.49C565.93,647.49,590.61,672.13,622.3,703.84C649.97,731.53,677.9,759.73,683.78,765.37C683.78,765.37,685.99,767.59,685.99,767.59C685.99,767.59,688.32,769.97,688.32,769.97C688.32,769.97,681.24,777.02,681.24,777.02C676.74,781.0,655.54,802.62,652.95,805.33C652.95,805.33,652.37,805.91,652.37,805.91C652.37,805.91,650.0,808.24,650.0,808.24C650.0,808.24,642.96,801.16,642.96,801.16C642.96,801.16,622.62,780.86,614.68,772.9C614.68,772.9,605.03,763.23,586.6,744.78C558.94,717.08,530.77,689.13,525.14,683.24C525.14,683.24,522.95,681.06,522.95,681.06C522.95,681.06,520.58,678.71,520.58,678.71C520.58,678.71,513.63,685.73,513.63,685.73C505.69,694.74,486.03,714.76,400.11,798.64C394.38,804.23,390.57,807.96,390.57,807.96C389.48,809.0,385.79,812.63,385.79,812.63C385.79,812.63,384.46,813.9,384.46,813.9C384.46,813.9,377.43,806.78,377.43,806.78C349.61,773.86,336.15,786.64,367.37,755.51C411.94,711.07,428.62,693.13,466.09,656.43C471.78,650.86,475.59,647.17,475.59,647.17C477.03,645.76,480.39,642.47,480.39,642.47C480.39,642.47,482.32,640.46,482.32,640.46C482.32,640.46,475.29,633.46,475.29,633.46C464.07,623.48,410.98,569.53,404.44,562.8C398.85,557.06,395.13,553.23,395.13,553.23C394.06,552.18,390.39,548.51,390.39,548.51C390.39,548.51,388.91,547.05,388.91,547.05C388.91,547.05,381.89,554.02,381.89,554.02C375.9,560.75,368.4,567.07,296.93,638.91C291.28,644.59,287.51,648.37,287.51,648.37C287.51,648.37,284.75,651.11,284.75,651.11C284.75,651.11,277.78,644.03,277.78,644.03C273.88,639.45,254.84,620.91,249.39,615.74C249.39,615.74,248.33,614.67,248.33,614.67C248.33,614.67,246.0,612.31,246.0,612.31C246.0,612.31,253.01,605.36,253.01,605.36C266.58,593.5,298.15,560.25,338.42,520.9C344.15,515.3,347.94,511.54,347.94,511.54C347.94,511.54,350.62,508.81,350.62,508.81C350.62,508.81,343.68,501.92,343.68,501.92C343.68,501.92,333.7,492.43,315.17,473.8C296.8,455.32,276.44,435.77,253.43,412.71C251.66,410.94,248.68,408.01,248.68,408.01C248.68,408.01,247.25,406.59,247.25,406.59C247.25,406.59,254.28,399.64,254.28,399.64C261.08,393.7,277.44,376.69,282.62,371.23C282.62,371.23,283.69,370.14,283.69,370.14C283.69,370.14,286.03,367.79,286.03,367.79C286.03,367.79,292.98,374.76,292.98,374.76C292.98,374.76,308.19,390.05,321.7,403.47C321.7,403.47,328.78,410.35,349.74,431.26C360.42,441.91,367.52,449.04,378.11,459.77C383.67,465.4,387.41,469.12,387.41,469.12C387.41,469.12,390.17,471.85,390.17,471.85C390.17,471.85,397.2,464.84,397.2,464.84C397.2,464.84,425.17,436.13,425.17,436.13C440.97,420.06,443.74,417.52,467.91,393.89C473.59,388.34,477.37,384.63,477.37,384.63C478.42,383.55,482.1,379.92,482.1,379.92C482.1,379.92,483.58,378.43,483.58,378.43C483.58,378.43,476.5,371.38,476.5,371.38C471.99,367.44,435.75,330.99,419.96,315.02C397.84,292.66,370.69,265.44,370.69,265.44C368.5,263.26,364.79,259.56,364.79,259.56M428.45,510.08C428.45,510.08,435.36,516.83,435.36,516.83C462.66,542.79,493.08,574.54,506.31,587.94C511.77,593.46,515.46,597.09,515.46,597.09C516.58,598.18,520.37,602.02,520.37,602.02C520.37,602.02,520.57,602.21,520.57,602.21C520.57,602.21,527.63,595.12,527.63,595.12C537.29,583.66,578.3,544.16,598.33,524.42C604.03,518.8,607.78,515.01,607.78,515.01C608.82,513.92,612.52,510.3,612.52,510.3C612.52,510.3,613.99,508.82,613.99,508.82C613.99,508.82,606.91,501.76,606.91,501.76C601.25,496.93,555.73,452.17,536.5,431.98C531.09,426.3,527.55,422.44,527.55,422.44C526.48,421.39,522.84,417.71,522.84,417.71C522.84,417.71,521.81,416.7,521.81,416.7C521.81,416.7,514.79,423.72,514.79,423.72C514.79,423.72,494.61,444.2,486.74,452.24C478.32,460.84,466.53,472.81,458.55,480.78C450.08,489.26,429.91,508.63,429.91,508.63C428.47,510.05,428.45,510.08,428.45,510.08" stroke-linecap="round"/>
</svg>