<?xml version="1.0" encoding="utf-8"?>
<!DOCTYPE svg PUBLIC "-//W3C//DTD SVG 1.1//EN" "http://www.w3.org/Graphics/SVG/1.1/DTD/svg11.dtd">
<svg version="1.1" id="Capa_1" xmlns="http://www.w3.org/2000/svg" xmlns:xlink="http://www.w3.org/1999/xlink" x="0px" y="0px"
width="1024px" height="1024px" viewBox="0 0 1024 1024" enable-background="new 0 0 1080 2412" xml:space="preserve">
<defs></defs><path layer="0" fill="#000000" fill-opacity="1.0" stroke="#000000" stroke-width="4.0" stroke-opacity="1.0" stroke-miterlimit="10" d="M350.14,257.38C350.14,257.38,367.0,274.16,367.0,274.16C387.74,294.85,416.86,323.58,435.89,343.38C445.96,353.86,481.72,388.9,481.72,388.9C481.72,388.9,485.81,393.04,485.81,393.04C485.81,393.04,468.61,410.08,468.61,410.08C457.67,419.7,412.63,465.72,400.01,478.86C400.01,478.86,398.1,480.78,398.1,480.78C398.1,480.78,392.38,486.46,392.38,486.46C392.38,486.46,375.51,469.64,375.51,469.64C369.85,463.23,302.24,396.81,294.89,389.05C294.89,389.05,288.23,382.37,288.23,382.37C288.23,382.37,271.08,399.52,271.08,399.52C266.37,405.1,265.05,405.67,259.62,410.98C259.62,410.98,255.13,415.47,255.13,415.47C255.13,415.47,249.45,421.19,249.45,421.19C249.45,421.19,266.72,438.22,266.72,438.22C279.46,449.47,316.64,488.43,347.29,517.82C347.29,517.82,354.11,524.69,354.11,524.69C354.11,524.69,337.12,541.81,337.12,541.81C337.12,541.81,256.92,621.97,256.92,621.97C253.49,625.41,245.46,633.43,245.46,633.43C245.46,633.43,243.57,635.35,243.57,635.35C243.57,635.35,260.68,652.09,260.68,652.09C266.36,656.89,264.52,656.28,272.16,663.98C272.16,663.98,276.45,668.27,276.45,668.27C276.45,668.27,282.17,673.96,282.17,673.96C282.17,673.96,298.87,656.57,298.87,656.57C298.87,656.57,378.97,576.29,378.97,576.29C382.42,572.86,390.42,564.83,390.42,564.83C390.42,564.83,392.37,562.93,392.37,562.93C392.37,562.93,409.12,579.91,409.12,579.91C418.71,590.95,464.99,636.08,478.19,648.73C478.19,648.73,480.13,650.66,480.13,650.66C480.13,650.66,485.8,656.38,485.8,656.38C485.8,656.38,468.75,673.5,468.75,673.5C468.75,673.5,419.41,723.05,400.06,742.38C400.06,742.38,375.19,767.26,365.44,776.98C360.22,782.18,359.43,783.27,353.86,788.54C353.86,788.54,349.1,793.28,349.1,793.28C349.1,793.28,343.75,798.66,343.75,798.66C343.75,798.66,360.9,815.81,360.9,815.81C366.41,820.59,365.99,820.75,372.36,827.27C372.36,827.27,376.15,831.06,376.15,831.06C376.15,831.06,381.86,836.73,381.86,836.73C381.86,836.73,398.94,819.67,398.94,819.67C398.94,819.67,422.54,796.08,467.68,751.13C481.47,737.41,509.22,709.57,513.43,705.18C513.43,705.18,518.3,700.31,518.3,700.31C518.3,700.31,524.02,694.63,524.02,694.63C524.02,694.63,540.95,711.63,540.95,711.63C540.95,711.63,590.41,761.1,609.81,780.43C620.19,790.79,655.93,826.51,655.93,826.51C655.93,826.51,660.07,830.62,660.07,830.62C660.07,830.62,677.22,813.47,677.22,813.47C681.99,807.95,682.16,808.37,688.69,802.01C688.69,802.01,692.56,798.13,692.56,798.13C692.56,798.13,698.26,792.41,698.26,792.41C698.26,792.41,680.6,774.75,680.6,774.75C680.6,774.75,631.6,725.76,612.43,706.59C612.43,706.59,587.76,681.99,578.16,672.32C569.6,663.69,567.3,662.25,566.7,660.86C566.7,660.86,562.27,656.39,562.27,656.39C562.27,656.39,579.25,639.64,579.25,639.64C595.73,625.16,635.4,583.75,648.06,570.55C648.06,570.55,649.97,568.63,649.97,568.63C649.97,568.63,655.69,562.95,655.69,562.95C655.69,562.95,672.61,580.07,672.61,580.07C683.82,592.86,723.6,629.37,752.98,660.15C752.98,660.15,754.5,661.67,754.5,661.67C754.5,661.67,760.21,667.37,760.21,667.37C760.21,667.37,776.92,650.27,776.92,650.27C781.72,644.57,781.12,646.43,788.83,638.77C788.83,638.77,792.95,634.65,792.95,634.65C792.95,634.65,798.64,628.94,798.64,628.94C798.64,628.94,781.68,612.45,781.68,612.45C781.68,612.45,731.85,562.21,712.1,542.82C707.14,537.95,707.4,537.96,701.14,531.95C701.14,531.95,699.62,530.42,699.62,530.42C699.62,530.42,693.94,524.71,693.94,524.71C693.94,524.71,710.95,507.63,710.95,507.63C721.85,497.94,753.62,464.38,779.7,438.9C789.25,429.56,791.15,427.44,791.15,427.44C791.15,427.44,791.85,426.71,791.85,426.71C791.85,426.71,774.75,410.0,774.75,410.0C769.03,405.23,770.92,405.79,763.26,398.08C763.26,398.08,759.3,394.12,759.3,394.12C759.3,394.12,753.58,388.43,753.58,388.43C753.58,388.43,736.63,405.55,736.63,405.55C726.91,416.43,693.35,448.2,667.92,474.31C658.58,483.89,656.46,485.77,656.46,485.77C656.46,485.77,655.72,486.47,655.72,486.47C655.72,486.47,638.96,469.5,638.96,469.5C629.39,458.44,583.08,413.34,569.88,400.68C569.88,400.68,567.94,398.75,567.94,398.75C567.94,398.75,562.26,393.03,562.26,393.03C562.26,393.03,579.36,376.09,579.36,376.09C579.36,376.09,603.05,352.44,648.21,307.25C671.57,283.88,672.8,282.08,682.79,272.61C682.79,272.61,686.42,268.98,686.42,268.98C686.42,268.98,691.81,263.54,691.81,263.54C691.81,263.54,674.65,246.38,674.65,246.38C669.12,241.63,668.5,240.36,663.18,234.92C663.18,234.92,659.19,230.93,659.19,230.93C659.19,230.93,653.47,225.24,653.47,225.24C653.47,225.24,636.36,242.35,636.36,242.35C636.36,242.35,612.72,265.97,567.69,311.12C539.44,339.46,549.12,329.0,533.43,345.45C533.43,345.45,529.77,349.1,529.77,349.1C529.77,349.1,524.05,354.8,524.05,354.8C524.05,354.8,507.03,337.53,507.03,337.53C497.43,326.53,438.21,268.71,438.21,268.71C427.8,258.53,391.93,223.48,391.93,223.48C391.93,223.48,387.94,219.58,387.94,219.58C387.94,219.58,370.78,236.74,370.78,236.74C364.09,244.14,357.11,250.61,353.62,253.89C350.14,257.18,350.14,257.38,350.14,257.38M535.46,606.77C535.46,606.77,546.99,595.23,552.81,589.35C562.96,579.05,570.23,570.55,586.36,554.73C600.23,541.13,609.76,532.36,609.76,532.36C609.76,532.36,611.75,530.38,611.75,530.38C611.75,530.38,617.49,524.7,617.49,524.7C617.49,524.7,600.4,507.7,600.4,507.7C589.43,498.09,531.63,438.92,531.63,438.92C531.63,438.92,529.71,436.98,529.71,436.98C529.71,436.98,524.02,431.28,524.02,431.28C524.02,431.28,507.02,448.36,507.02,448.36C497.4,459.33,438.24,517.13,438.24,517.13C438.24,517.13,436.31,519.03,436.31,519.03C436.31,519.03,430.61,524.73,430.61,524.73C430.61,524.73,447.71,541.52,447.71,541.52C509.67,594.83,505.65,621.47,533.52,608.71C536.89,607.17,535.46,606.77,535.46,606.77" stroke-linecap="round"/>
</svg>