<?xml version="1.0" encoding="UTF-8" standalone="no"?>
<!-- Created with Inkscape (http://www.inkscape.org/) -->

<svg
   xmlns:dc="http://purl.org/dc/elements/1.1/"
   xmlns:cc="http://creativecommons.org/ns#"
   xmlns:rdf="http://www.w3.org/1999/02/22-rdf-syntax-ns#"
   xmlns:svg="http://www.w3.org/2000/svg"
   xmlns="http://www.w3.org/2000/svg"
   xmlns:sodipodi="http://sodipodi.sourceforge.net/DTD/sodipodi-0.dtd"
   xmlns:inkscape="http://www.inkscape.org/namespaces/inkscape"
   id="svg2985"
   version="1.1"
   inkscape:version="0.48.5 r10040"
   width="1280"
   height="165"
   viewBox="0 0 1280 165"
   sodipodi:docname="logo_line.svg">
  <metadata
     id="metadata2991">
    <rdf:RDF>
      <cc:Work
         rdf:about="">
        <dc:format>image/svg+xml</dc:format>
        <dc:type
           rdf:resource="http://purl.org/dc/dcmitype/StillImage" />
        <dc:title></dc:title>
      </cc:Work>
    </rdf:RDF>
  </metadata>
  <defs
     id="defs2989" />
  <sodipodi:namedview
     pagecolor="#636363"
     bordercolor="#666666"
     borderopacity="1"
     objecttolerance="10"
     gridtolerance="10"
     guidetolerance="10"
     inkscape:pageopacity="0"
     inkscape:pageshadow="2"
     inkscape:window-width="1920"
     inkscape:window-height="1028"
     id="namedview2987"
     showgrid="false"
     showguides="true"
     inkscape:guide-bbox="true"
     inkscape:zoom="1"
     inkscape:cx="598.98325"
     inkscape:cy="181.51545"
     inkscape:window-x="1912"
     inkscape:window-y="-8"
     inkscape:window-maximized="1"
     inkscape:current-layer="svg2985"
     inkscape:snap-global="true"
     inkscape:snap-bbox="false"
     inkscape:snap-grids="false"
     inkscape:snap-to-guides="true"
     inkscape:bbox-nodes="true"
     inkscape:bbox-paths="true"
     inkscape:snap-bbox-edge-midpoints="true"
     inkscape:snap-bbox-midpoints="true"
     inkscape:object-paths="true"
     inkscape:snap-intersection-paths="true"
     inkscape:object-nodes="true"
     inkscape:snap-smooth-nodes="true"
     inkscape:snap-midpoints="true"
     inkscape:snap-object-midpoints="true"
     inkscape:snap-center="true"
     inkscape:snap-page="false"
     inkscape:snap-nodes="true" />
  <path
     style="fill:#ffffff;fill-rule:evenodd;stroke:none;stroke-width:1px;stroke-linecap:butt;stroke-linejoin:miter;stroke-opacity:1;fill-opacity:1"
     d="M 84.53125 8.65625 C 46.854495 8.65625 15.823527 36.964476 11.46875 73.46875 L 25.6875 73.46875 C 29.881729 44.003058 54.885049 21.375 85.09375 21.375 C 115.30245 21.375 140.27452 44.003058 144.46875 73.46875 L 157.625 73.46875 C 153.27022 36.964476 122.20801 8.65625 84.53125 8.65625 z M 11.53125 91.53125 C 16.087967 127.81636 47.01052 155.90625 84.53125 155.90625 C 122.05198 155.90625 153.00578 127.81636 157.5625 91.53125 L 144.40625 91.53125 C 140.00432 120.75542 115.13328 143.125 85.09375 143.125 C 55.054219 143.125 30.151932 120.75542 25.75 91.53125 L 11.53125 91.53125 z "
     id="path2995" />
  <path
     style="fill:#ffffff;fill-opacity:1;stroke:none;opacity:1"
     d="M 84.71875 37.0625 C 60.016559 37.0625 40 57.079059 40 81.78125 C 40 106.48344 60.016559 126.53125 84.71875 126.53125 C 109.42094 126.53125 129.4375 106.48344 129.4375 81.78125 C 129.4375 57.079059 109.42094 37.0625 84.71875 37.0625 z M 84.71875 45.1875 C 91.017819 45.1875 96.945251 46.76953 102.125 49.5625 L 99 55.5 C 94.757814 53.203112 89.881625 51.90625 84.71875 51.90625 C 68.150207 51.90625 54.71875 65.337707 54.71875 81.90625 C 54.71875 87.314957 56.151698 92.399275 58.65625 96.78125 L 52.78125 100 C 49.747401 94.656771 48 88.491555 48 81.90625 C 48 61.622335 64.434835 45.1875 84.71875 45.1875 z "
     id="path3788" />
  <path
     style="fill:#ffffff;fill-opacity:1;stroke:none;opacity:1"
     d="M 203.8125 32.625 L 203.8125 132.34375 L 228 132.34375 L 228 89.71875 L 299.09375 89.71875 L 299.09375 132.34375 L 323.09375 132.34375 L 396.53125 132.34375 C 415.13383 132.34375 426.53125 119.30398 426.53125 106.28125 L 426.53125 58.28125 C 426.53125 58.19034 426.28693 32.625 395.46875 32.625 L 323.09375 32.625 L 321.09375 32.625 L 299.09375 32.625 L 299.09375 70.28125 L 228 70.28125 L 228 32.625 L 203.8125 32.625 z M 323.09375 52.625 L 395.46875 52.625 C 400.25568 52.65625 402.0625 54.65625 402 58.28125 L 402 106.28125 C 402.0625 109.57102 400.45172 112.46875 396.53125 112.46875 L 323.09375 112.46875 L 323.09375 52.625 z "
     id="rect3827" />
  <rect
     style="opacity:1;fill:#ffffff;fill-opacity:1;stroke:none"
     id="rect3855"
     width="24"
     height="99.70816"
     x="538.36365"
     y="32.63636" />
  <path
     style="opacity:1;fill:#ffffff;fill-opacity:1;stroke:none"
     d="M 582.375 32.625 L 582.375 132.34375 L 596 132.34375 L 596 85 L 689.28125 85 L 689.28125 132.34375 L 702.375 132.34375 L 702.375 32.625 L 689.28125 32.625 L 689.28125 75.53125 L 596 75.53125 L 596 32.625 L 582.375 32.625 z "
     id="rect3857" />
  <path
     style="opacity:1;fill:#ffffff;fill-opacity:1;stroke:none"
     d="M 1008.7188 32.625 L 1008.7188 132.34375 L 1020.5312 132.34375 L 1022.1875 132.34375 L 1111.625 132.34375 L 1111.625 123 L 1022.1875 123 L 1022.1875 85.1875 L 1106.7188 85.1875 L 1106.7188 75.375 L 1022.1875 75.375 L 1022.1875 41.71875 L 1111.625 41.71875 L 1111.625 32.625 L 1022.1875 32.625 L 1021.0938 32.625 L 1008.7188 32.625 z "
     id="rect3863" />
  <path
     style="opacity:1;fill:#ffffff;fill-opacity:1;stroke:none"
     d="M 1134.7188 32.625 L 1134.7188 132.34375 L 1145.8125 132.34375 L 1145.8125 46.84375 L 1257.625 132.34375 L 1269.2812 132.34375 L 1269.2812 32.625 L 1257.625 32.625 L 1257.625 117.28125 L 1145.8125 32.625 L 1134.7188 32.625 z "
     id="rect3871" />
  <path
     style="opacity:1;fill:#ffffff;fill-opacity:1;stroke:none"
     d="m 423.91051,32.63636 c 11.18113,7.247844 13.52342,19.778332 13.52342,19.778332 0,0 53.75741,0 58.97232,0 3.83992,0 6.78861,3.155173 6.78861,6.254126 l 0,5.568466 c 0,3.128904 -3.47734,6.717514 -6.78861,6.717514 -6.71751,0 -57.38133,0 -57.38133,0 l 0,19.445437 40.65864,0 22.0087,41.944285 25.89779,0 -22.89259,-42.563004 c 0,0 20.85965,-3.55698 20.85965,-21.499053 0,-3.567072 0,-7.22716 0,-15.977606 0,-6.312946 -8.53598,-19.668497 -27.48877,-19.668497 -15.2028,0 -74.15783,0 -74.15783,0 z"
     id="path3884"
     inkscape:connector-curvature="0"
     sodipodi:nodetypes="ccsccsccccccsssc" />
  <path
     style="fill:#ffffff;stroke:none;stroke-width:1px;stroke-linecap:butt;stroke-linejoin:miter;stroke-opacity:1;fill-opacity:1"
     d="m 721.75,132.34452 66,-99.70816 11.125,0 65,99.70816 -13.625,0 -57,-87.21952 -57.25,87.21952 z"
     id="path3889"
     inkscape:connector-curvature="0" />
  <path
     inkscape:connector-curvature="0"
     id="path3893"
     d="m 847.79178,32.63636 66,99.70816 11.125,0 65,-99.70816 -13.625,0 -57,87.21952 -57.25,-87.21952 z"
     style="fill:#ffffff;fill-opacity:1;stroke:none" />
</svg>
